<svg xmlns="http://www.w3.org/2000/svg">
  <symbol id="logout" viewBox="0 0 30 30">
    <path d="m21.25 10-1.762 1.762 1.974 1.988H11.25v2.5h10.212l-1.974 1.975L21.25 20l5-5-5-5Zm-15-3.75H15v-2.5H6.25a2.507 2.507 0 0 0-2.5 2.5v17.5c0 1.375 1.125 2.5 2.5 2.5H15v-2.5H6.25V6.25Z" fill-rule="nonzero" fill="currentColor"/>
  </symbol>

  <symbol id="help" viewBox="0 0 17 17">
    <path d="M17 8.5C17 3.813 13.187 0 8.5 0 3.813 0 0 3.813 0 8.5a8.47 8.47 0 0 0 1.179 4.32L.03 16.97l4.15-1.15A8.474 8.474 0 0 0 8.5 17c4.687 0 8.5-3.813 8.5-8.5ZM7.196 6.522H5.89A2.612 2.612 0 0 1 8.5 3.913a2.612 2.612 0 0 1 2.609 2.609c0 .73-.31 1.432-.849 1.925L9.152 9.46v1.017H7.848v-1.59L9.38 7.485a1.306 1.306 0 0 0-.88-2.267c-.72 0-1.304.584-1.304 1.304Zm.652 5.26h1.304v1.305H7.848v-1.304Z" fill="currentColor"/>
  </symbol>

  <symbol id="explore" viewBox="0 0 60 60">
    <defs>
      <linearGradient x1="50%" y1="0%" x2="50%" y2="100%" id="a">
        <stop stop-color="#46C443" offset="0%"/>
        <stop stop-color="#1976BC" offset="100%"/>
      </linearGradient>
      <path d="M7.03 10.475h2.33c-.685 1.808-1.393 3.563-2.333 4.983l.004-4.983Zm-3.517 0h2.612v6.154a6.89 6.89 0 0 1-2.063 1.583c-.177.086-.36.165-.55.238v-7.975h.001Zm7.154-.9c.725-1.912 1.473-3.762 2.5-5.227v5.229h-2.5v-.002Zm6.01 0h-2.612V3.229a6.787 6.787 0 0 1 2.625-1.702v8.056l-.013-.008Zm-1.09-8.565a7.962 7.962 0 0 0-2.67 2.167c-1.45 1.78-2.34 4.1-3.215 6.4H.652a.454.454 0 1 0-.06.906h2.016v8.269a8.61 8.61 0 0 1-1.958.21.454.454 0 1 0-.06.905h.06a8.5 8.5 0 0 0 3.813-.817 7.933 7.933 0 0 0 2.652-2.177c1.45-1.783 2.343-4.09 3.21-6.398h9.185a.452.452 0 0 0 0-.904h-1.923v-8.31a8.846 8.846 0 0 1 1.815-.178.452.452 0 0 0 0-.904h-.008a8.51 8.51 0 0 0-3.806.817l-.001.014Z" id="b"/>
    </defs>
    <g fill="none" fill-rule="evenodd">
      <rect fill="#E8F1F8" width="60" height="60" rx="3"/>
      <g transform="translate(13 13)">
        <circle fill="url(#a)" cx="17.5" cy="17.5" r="17.5"/>
        <path d="M14.556 17.99h2.329c-.685 1.808-1.393 3.564-2.333 4.983l.004-4.983Zm-3.518 0h2.612v6.154a6.89 6.89 0 0 1-2.063 1.583c-.177.086-.36.165-.55.238V17.99h.001Zm7.154-.9c.725-1.911 1.473-3.761 2.5-5.227v5.23h-2.5v-.003Zm6.01 0H21.59v-6.346a6.787 6.787 0 0 1 2.625-1.702v8.056l-.013-.008Zm-1.09-8.565a7.962 7.962 0 0 0-2.67 2.167c-1.45 1.781-2.34 4.1-3.215 6.4h-9.05a.454.454 0 0 0-.06.906h2.016v8.27a8.61 8.61 0 0 1-1.958.209.454.454 0 1 0-.06.906h.06a8.5 8.5 0 0 0 3.813-.818 7.933 7.933 0 0 0 2.652-2.177c1.45-1.782 2.343-4.09 3.21-6.398h9.185a.452.452 0 1 0 0-.903h-1.923v-8.31a8.846 8.846 0 0 1 1.815-.179.452.452 0 0 0 0-.904h-.008a8.51 8.51 0 0 0-3.806.818l-.001.013Z" fill="#FFF" fill-rule="nonzero"/>
        <g transform="translate(7.5 7.5)">
          <mask id="c" fill="#fff">
            <use href="#b"/>
          </mask>
          <use fill="#FFF" href="#b"/>
          <path fill="#FFF" fill-rule="nonzero" mask="url(#c)" d="M.217.208H19.99v19.663H.217z"/>
        </g>
      </g>
    </g>
  </symbol>

  <symbol id="myDALITE" viewBox="0 0 60 60">
    <defs>
      <rect id="mda" x="0" y="0" width="60" height="60" rx="3"/>
      <path d="M7.03 10.475h2.33c-.685 1.808-1.393 3.563-2.333 4.983l.004-4.983Zm-3.517 0h2.612v6.154a6.89 6.89 0 0 1-2.063 1.583c-.177.086-.36.165-.55.238v-7.975h.001Zm7.154-.9c.725-1.912 1.473-3.762 2.5-5.227v5.229h-2.5v-.002Zm6.01 0h-2.612V3.229a6.787 6.787 0 0 1 2.625-1.702v8.056l-.013-.008Zm-1.09-8.565a7.962 7.962 0 0 0-2.67 2.167c-1.45 1.78-2.34 4.1-3.215 6.4H.652a.454.454 0 1 0-.06.906h2.016v8.269a8.61 8.61 0 0 1-1.958.21.454.454 0 1 0-.06.905h.06a8.5 8.5 0 0 0 3.813-.817 7.933 7.933 0 0 0 2.652-2.177c1.45-1.783 2.343-4.09 3.21-6.398h9.185a.452.452 0 0 0 0-.904h-1.923v-8.31a8.846 8.846 0 0 1 1.815-.178.452.452 0 0 0 0-.904h-.008a8.51 8.51 0 0 0-3.806.817l-.001.014Z" id="mdc"/>
    </defs>
    <g fill="none" fill-rule="evenodd">
      <mask id="mdb" fill="#fff">
        <use href="#mda"/>
      </mask>
      <use fill="#1976BC" href="#mda"/>
      <g mask="url(#mdb)">
        <path d="M21.445 29.983c7.129 3.418 13.95 7.619 21.525 9.882 2.325.694 4.727 1.203 7.154 1.194 3.426-.012 6.686-1.035 9.876-2.351V35.82h-.012c-3.085.169-6.175-.404-9.127-1.322-7.747-2.409-14.533-7.11-21.59-11.113-7.058-4.004-14.885-7.431-22.98-6.876-2.164.148-4.256.57-6.291 1.197v7.089c7.373-.607 14.734 1.97 21.445 5.188" fill="#2C8BD2"/>
        <path d="M29.27 23.385c7.058 4.003 13.844 8.704 21.591 11.113 2.952.918 6.042 1.49 9.127 1.322H60V0H0v17.706c2.035-.626 4.127-1.049 6.291-1.197 8.095-.555 15.922 2.872 22.98 6.876M50.124 41.06c-2.427.008-4.83-.5-7.154-1.195-7.576-2.263-14.396-6.464-21.525-9.882C14.735 26.766 7.373 24.188 0 24.795v11.514c2.615-.794 5.268-1.368 7.977-1.603 9.226-.803 18.367 2.43 26.538 6.79 7.366 3.931 14.73 8.96 23.08 8.967.81 0 1.612-.046 2.405-.134V38.708c-3.19 1.316-6.45 2.34-9.876 2.351" fill="#1976BC"/>
        <path d="M44.93 54.25c-14.578-.594-27.603-10.465-42.188-10.852-.916-.025-1.83-.01-2.742.035V60h60v-7.857c-4.956 1.375-9.957 2.316-15.07 2.108" fill="#0F4771"/>
        <path d="M57.594 50.463c-8.349-.007-15.713-5.036-23.08-8.967-8.17-4.36-17.31-7.593-26.537-6.79-2.709.235-5.362.809-7.977 1.603v7.124c.912-.046 1.826-.06 2.742-.035 14.585.387 27.61 10.258 42.189 10.853 5.112.208 10.113-.733 15.069-2.108v-1.814c-.793.088-1.594.135-2.406.134" fill="#13609A"/>
      </g>
      <circle fill="#93E9FF" cx="30" cy="30" r="17"/>
      <path d="M27.056 30.49h2.329c-.685 1.808-1.393 3.564-2.333 4.983l.004-4.983Zm-3.518 0h2.612v6.154a6.89 6.89 0 0 1-2.063 1.583c-.177.086-.36.165-.55.238V30.49h.001Zm7.154-.9c.725-1.911 1.473-3.761 2.5-5.227v5.23h-2.5v-.003Zm6.01 0H34.09v-6.346a6.787 6.787 0 0 1 2.625-1.702v8.056l-.013-.008Zm-1.09-8.565a7.962 7.962 0 0 0-2.67 2.167c-1.45 1.781-2.34 4.1-3.215 6.4h-9.05a.454.454 0 0 0-.06.906h2.016v8.27a8.61 8.61 0 0 1-1.958.209.454.454 0 1 0-.06.906h.06a8.5 8.5 0 0 0 3.813-.818 7.933 7.933 0 0 0 2.652-2.177c1.45-1.782 2.343-4.09 3.21-6.398h9.185a.452.452 0 1 0 0-.903h-1.923v-8.31a8.846 8.846 0 0 1 1.815-.179.452.452 0 0 0 0-.904h-.008a8.51 8.51 0 0 0-3.806.818l-.001.013Z" fill="#FFF" fill-rule="nonzero"/>
      <g transform="translate(20 20)">
        <mask id="mdd" fill="#fff">
          <use href="#mdc"/>
        </mask>
        <path fill="#FFF" fill-rule="nonzero" mask="url(#mdd)" d="M.217.208H19.99v19.663H.217z"/>
      </g>
    </g>
  </symbol>

  <symbol id="courseflow" viewBox="0 0 60 60">
    <defs>
      <path d="M6.935 10.459h2.353c-.691 1.836-1.406 3.62-2.356 5.06l.003-5.06Zm-3.553 0H6.02v6.25a6.966 6.966 0 0 1-2.084 1.608 6.82 6.82 0 0 1-.556.242v-8.1h.002Zm7.228-.914c.732-1.942 1.488-3.82 2.525-5.309v5.31H10.61v-.001Zm6.071 0h-2.638V3.099a6.859 6.859 0 0 1 2.652-1.728v8.182l-.014-.008ZM15.58.845a8.052 8.052 0 0 0-2.697 2.202c-1.465 1.808-2.365 4.164-3.249 6.5H.491a.458.458 0 0 0-.412.204.463.463 0 0 0 .351.716h2.037v8.398a8.655 8.655 0 0 1-1.978.213.46.46 0 0 0-.06.92h.06a8.55 8.55 0 0 0 3.853-.83 8.024 8.024 0 0 0 2.679-2.21c1.465-1.811 2.366-4.155 3.243-6.5h9.28A.458.458 0 0 0 20 10a.458.458 0 0 0-.457-.46H17.6V1.102A8.893 8.893 0 0 1 19.435.92a.458.458 0 0 0 .456-.46.458.458 0 0 0-.456-.458h-.008a8.56 8.56 0 0 0-3.845.83l-.002.013Z" id="cfc"/>
      <path id="cfe" d="M0 0h20v20.192H0z"/>
      <rect id="cfa" x="0" y="0" width="60" height="60" rx="3"/>
    </defs>
    <g fill="none" fill-rule="evenodd">
      <mask id="cfb" fill="#fff">
        <use href="#cfa"/>
      </mask>
      <use fill="#2F852D" href="#cfa"/>
      <path fill="#46C443" mask="url(#cfb)" d="m51.027 2 59.028 62H-8z"/>
      <path fill="#49D147" mask="url(#cfb)" d="m7.027 38 59.028 62H-52z"/>
      <path fill="#3CAB3A" mask="url(#cfb)" d="m39 28 42 45H-3z"/>
      <circle fill="#FFF" cx="30" cy="30" r="17"/>
      <g transform="translate(20 20)">
        <mask id="cfd" fill="#fff">
          <use href="#cfc"/>
        </mask>
        <g mask="url(#cfd)">
          <use fill="#007800" href="#cfe"/>
        </g>
      </g>
    </g>
  </symbol>

  <symbol id="assignments" viewBox="0 0 17 17">
    <path d="M14.45 1.7h-3.553A2.559 2.559 0 0 0 8.5 0C7.395 0 6.46.714 6.103 1.7H2.55c-.935 0-1.7.765-1.7 1.7v11.9c0 .935.765 1.7 1.7 1.7h11.9c.935 0 1.7-.765 1.7-1.7V3.4c0-.935-.765-1.7-1.7-1.7Zm-5.95 0c.467 0 .85.383.85.85 0 .468-.383.85-.85.85a.852.852 0 0 1-.85-.85c0-.467.383-.85.85-.85Zm1.7 11.9H4.25v-1.7h5.95v1.7Zm2.55-3.4h-8.5V8.5h8.5v1.7Zm0-3.4h-8.5V5.1h8.5v1.7Z" fill="currentColor" />
  </symbol>

  <symbol id="collections" viewBox="0 0 17 17">
    <path d="M3.248 9.86a2.25 2.25 0 0 0-.981-.227A2.27 2.27 0 0 0 0 11.9a2.266 2.266 0 0 0 4.15 1.259l2.141 1.072A2.27 2.27 0 0 0 8.5 17a2.27 2.27 0 0 0 2.267-2.268c0-.47-.144-.906-.39-1.268l3.009-3.146c.377.28.842.448 1.347.448A2.27 2.27 0 0 0 17 8.5a2.27 2.27 0 0 0-2.267-2.267 2.25 2.25 0 0 0-1.387.479l-3.058-3.058a2.25 2.25 0 0 0 .479-1.387A2.27 2.27 0 0 0 8.5 0a2.27 2.27 0 0 0-2.209 2.768l-2.01.732a2.268 2.268 0 0 0-2.014-1.233A2.27 2.27 0 0 0 0 4.533 2.27 2.27 0 0 0 2.267 6.8c.322 0 .628-.069.906-.19l1.043 1.755-.968 1.495Zm1.155 2.791a2.253 2.253 0 0 0-.679-2.484l.815-1.259 2.457 4.134c-.207.185-.38.405-.508.653L4.403 12.65ZM8.5 4.533c.523 0 1.004-.18 1.388-.478l3.057 3.058c-.183.235-.32.508-.4.804l-1.78-.245.002-.022a2.266 2.266 0 0 0-4.15-1.259l-.339-.169 1.24-1.915c.298.143.63.226.982.226Zm.283 7.953v-2.59a2.27 2.27 0 0 0 1.905-1.663l1.78.245-.001.022c0 .541.19 1.038.508 1.428L10 13.038a2.257 2.257 0 0 0-1.217-.552ZM6.364 6.9c-.083.235-.13.487-.13.751 0 1.154.866 2.107 1.983 2.247v2.59a2.248 2.248 0 0 0-.753.233L4.883 8.377l1.085-1.676.396.198Zm.12-3.599c.14.269.329.507.558.7L5.768 5.967l-1.365-.683a2.253 2.253 0 0 0 .073-1.252L6.485 3.3ZM3.66 6.318c.19-.148.357-.325.491-.526l1.308.654-.898 1.388-.9-1.516Z" fill="currentColor" />
  </symbol>

  <symbol id="questions" viewBox="0 0 17 17">
    <path d="M0 5.639h13.222V3.75H0v1.889Zm0 3.778h13.222v-1.89H0v1.89Zm0 3.777h13.222v-1.888H0v1.888Zm15.111 0H17v-1.888h-1.889v1.888Zm0-9.444v1.889H17V3.75h-1.889Zm0 5.667H17v-1.89h-1.889v1.89Z" fill="currentColor" />
  </symbol>

  <symbol id="template" viewBox="0 0 17 17">
    <path d="M1 9.333h6.667V1H1v8.333ZM1 16h6.667v-5H1v5Zm8.333 0H16V7.667H9.333V16Zm0-15v5H16V1H9.333Z" fill="currentColor" />
  </symbol>

  <symbol id="heart" viewBox="0 0 20 20">
    <path d="M9.94 4.018C10.747 2.094 12.591.75 14.736.75c2.89 0 4.97 2.485 5.232 5.447 0 0 .14.735-.17 2.059-.423 1.802-1.418 3.404-2.76 4.626L9.94 19.25l-6.98-6.368C1.62 11.66.626 10.058.203 8.255-.11 6.932.032 6.197.032 6.197.294 3.235 2.374.75 5.264.75c2.145 0 3.869 1.344 4.676 3.268Z" fill="currentColor" />
  </symbol>

  <symbol id="search" viewBox="0 0 24 24">
    <path d="M0 0h24v24H0z" fill="none"/><path d="M15.5 14h-.79l-.28-.27C15.41 12.59 16 11.11 16 9.5 16 5.91 13.09 3 9.5 3S3 5.91 3 9.5 5.91 16 9.5 16c1.61 0 3.09-.59 4.23-1.57l.27.28v.79l5 4.99L20.49 19l-4.99-5zm-6 0C7.01 14 5 11.99 5 9.5S7.01 5 9.5 5 14 7.01 14 9.5 11.99 14 9.5 14z"/>
  </symbol>

</svg>
