<svg xmlns="http://www.w3.org/2000/svg" viewBox="0 0 91 53"><g transform="translate(.573)" fill-rule="nonzero" fill="none"><path fill="#FFF" d="M4.257 42.176h81.976V.676H4.257z"/><path d="M86.91 42.853H3.58V0h83.33v42.853ZM4.933 41.5h80.624V1.352H4.933V41.5Z" fill="#E5E5E5"/><path fill="#1976BC" d="M42.517 9.456v14.085H22.042l-3.783 4.539.432-4.539H16.85V9.456z"/><path fill="#F0F0F0" d="M54.909 10.291v9.032h13.128l2.425 2.91-.277-2.91h1.18v-9.032z"/><path fill="#FFB7B7" d="M.728 51.421h1.185l.563-4.568H.728z"/><path d="M.426 51.034H2.76c.82 0 1.486.666 1.486 1.487v.048H.426v-1.535Z" fill="#2F2E41"/><path fill="#FFB7B7" d="m14.958 51.382 1.15-.283-.544-4.571-1.698.418z"/><path d="m14.573 51.079 2.265-.557a1.487 1.487 0 0 1 1.798 1.088l.012.047-3.709.912-.366-1.49Z" fill="#2F2E41"/><path d="m0 50.332.246-1.259s.453-4.86 3.703-9.712l1.058-5.27s-.314-3.988 2.719-6.147l.935-.644 3.278.188.757 4.145 1.525 9.807s.394.037.542 1.171c.3.476.477 1.02.516 1.58 0 0 .78 2.155.99 3.74l-.025 1.552-1.648.878-3.436-9.717-2.457-5.432s-1.183 3.827-2.995 7.106c0 0-2.481 5.371-2.977 6.462l-.541 1.786L0 50.332Z" fill="#A15E00"/><circle fill="#FFB7B7" cx="10.96" cy="16.616" r="2.343"/><circle fill="#FFB8B8" cx="10.96" cy="16.616" r="2.343"/><path d="m7.733 27.969.773-1.932a8.69 8.69 0 0 1 .096-5.418l.148-.122c1.289-1.062 2.42-.868 3.47.43.17.211.367.398.588.554.463.325 1.198 2.09.228 3.125l-.777 4.527c.082 2.5-1.731 1.558-4.526-1.164Z" fill="#46C443"/><path d="M18.823 25.341a.858.858 0 0 0-1.282.295l-1.954-.152-.382 1.165 2.762.176a.862.862 0 0 0 .856-1.484Z" fill="#FFB7B7"/><path d="m16.952 27.231-5.57-1.04-1.81-3.036a1.293 1.293 0 0 1 2.433-.878l.85 2.35 4.404.728-.307 1.876Z" fill="#46C443"/><circle fill="#2F2E41" cx="6.784" cy="13.855" r="2.248"/><path d="M4.845 15.717a2.248 2.248 0 0 0 3.471-1.18 2.248 2.248 0 1 1-4.385-.922 2.247 2.247 0 0 0 .914 2.102Z" fill="#2F2E41"/><path d="M13.716 15.72c-.393-.703-.543-.997-1.049-1.424-.447-.378-.998-.489-1.441-.13a2.658 2.658 0 1 0 1.585 2.139c.386-.054.519-.532.905-.586Z" fill="#2F2E41"/><path d="M82.817 32.536a1.062 1.062 0 0 1 1.297-.985l1.404-1.979 1.41.56-2.022 2.767a1.068 1.068 0 0 1-2.089-.363Z" fill="#A0616A"/><path d="m84.358 30.834 2.496-4.198-1.017-2.713 1.385-3.694.051.022c.034.015.82.366.937 1.624l1.592 5.003-4.248 5.511-1.196-1.555Z" fill="#3F3D56"/><path d="M70.8 15.399a1.062 1.062 0 0 1 .881 1.368l1.864 1.553-.667 1.363-2.602-2.23A1.068 1.068 0 0 1 70.8 15.4Z" fill="#A0616A"/><path d="m72.377 17.066 3.993 2.814 2.783-.805 3.576 1.667-.026.05c-.017.031-.428.789-1.691.808L75.9 22.8l-5.167-4.662 1.643-1.072Z" fill="#3F3D56"/><path fill="#A0616A" d="M79.683 51.28h-1.388l-.66-5.354h2.049z"/><path d="M77.304 50.884h2.677v1.685h-4.363a1.686 1.686 0 0 1 1.686-1.685Z" fill="#2F2E41"/><path fill="#A0616A" d="M85.232 51.28h-1.389l-.66-5.354h2.049z"/><path d="M82.852 50.884h2.677v1.685h-4.363a1.686 1.686 0 0 1 1.686-1.685Z" fill="#2F2E41"/><path fill="#54C0DB" d="m85.725 31.736-.113 7.926-.113 10.417-2.491-.226-1.246-14.38-1.585 14.38h-2.572l-.259-14.494.906-3.17z"/><path d="m78.004 32.237-.38-.016 1.763-9.71-.722-2.936a.642.642 0 0 1 .398-.754l1.299-.487.459-1.262 3.62.39.088.986c.393.126 3.623 1.202 3.4 2.428-.22 1.21-1.519 5.016-1.585 5.209l-.227 5.458-.028.014c-.034.017-2.529 1.244-5.24 1.244a6.891 6.891 0 0 1-2.845-.564Z" fill="#3F3D56"/><circle fill="#A0616A" cx="82.489" cy="13.842" r="2.606"/><path d="M84.6 16.365c-.497.529-1.42.245-1.484-.478a.873.873 0 0 1 .001-.169c.034-.32.218-.61.174-.949a.498.498 0 0 0-.09-.233c-.397-.53-1.326.237-1.7-.242-.228-.294.04-.758-.135-1.087-.232-.433-.919-.22-1.35-.457-.48-.265-.45-1-.135-1.447.385-.546 1.06-.837 1.726-.88.666-.041 1.328.139 1.95.381.707.276 1.408.657 1.843 1.278.53.756.58 1.772.316 2.656-.161.538-.71 1.195-1.116 1.627Z" fill="#2F2E41"/><path fill="#FFB8B8" d="m56.363 50.56.387-.996-3.657-1.967-.571 1.47z"/><path d="M58.438 47.962a1.34 1.34 0 0 0-1.736.764l-.261.672-.403 1.036-.099.254 1.29.502 1.25-3.212-.041-.016ZM56.038 48.644l-.168.446-.42 1.115-.01.028c-1.071.137-2.245-.133-3.33-.551-.435-.168-.86-.358-1.275-.57a18.562 18.562 0 0 1-1.603-.917c-.66-.424-1.068-.742-1.068-.742s-.108.098-.303.265c-.262.224-.68.573-1.21.985-.201.158-.418.323-.65.495-1.708 1.268-3.9-2.114-3.9-2.114s.616-.392.777-.468c.519-.246 1.737-.825 2.789-1.34a53.18 53.18 0 0 0 1.371-.69c1.18-.63 2.648.56 2.648.56l6.352 3.498Z" fill="#2F2E41"/><path d="m56.038 48.644-.168.446-.42 1.115-.01.028c-1.071.137-2.245-.133-3.33-.551-.435-.168-.86-.358-1.275-.57a18.562 18.562 0 0 1-1.603-.917c-.66-.424-1.068-.742-1.068-.742s-.108.098-.303.265c-.262.224-.68.573-1.21.985-.201.158-.418.323-.65.495-1.708 1.268-3.9-2.114-3.9-2.114s.616-.392.777-.468c.519-.246 1.737-.825 2.789-1.34a53.18 53.18 0 0 0 1.371-.69c1.18-.63 2.648.56 2.648.56l6.352 3.498Z" fill="#000" opacity=".14"/><path d="M38.95 39.27h-5.055a.393.393 0 0 1-.392-.392v-2.18a2.92 2.92 0 0 1 5.84 0v2.18a.393.393 0 0 1-.393.392Z" fill="#2F2E41"/><path d="M43.758 42.007a.817.817 0 0 0-.627 1.085l-1.374 1.264.564 1.023 1.916-1.812a.822.822 0 0 0-.48-1.56Z" fill="#FFB8B8"/><path d="M39.622 47.755a2.196 2.196 0 0 1-1.956-1.19l-2.202-4.238a1.216 1.216 0 0 1 2.103-1.217l2.032 4.558 2.764-2.246 1.6.623-2.703 2.984a2.221 2.221 0 0 1-1.638.726Z" fill="#EDAA1E"/><path fill="#FFB8B8" d="m56.054 51.961.463-.963-3.495-2.243-.683 1.422z"/><path d="M58.322 49.53a1.34 1.34 0 0 0-1.79.628l-.311.65-.481 1.002-.118.246 1.248.6 1.491-3.107-.039-.019ZM55.877 50.025l-.202.432-.504 1.08-.013.026c-1.078.055-2.227-.304-3.278-.805-.42-.2-.83-.422-1.227-.665a18.562 18.562 0 0 1-1.527-1.038c-.625-.473-1.008-.822-1.008-.822s-.115.089-.323.24a34.351 34.351 0 0 1-1.968 1.333c-1.8 1.133-4.36 2.512-6.539 2.803-3.825.512-2.925-4.593-2.925-4.593l3.045-1.58 1.292.261 1.439.292.51.103.263-.1a257.77 257.77 0 0 0 2.883-1.12c.56-.224 1.075-.434 1.42-.585 1.226-.536 2.598.763 2.598.763l6.064 3.975Z" fill="#2F2E41"/><path d="M30.792 52.731a.817.817 0 0 0 .57-1.116l1.307-1.334-.617-.992-1.82 1.91a.822.822 0 0 0 .56 1.532Z" fill="#FFB8B8"/><circle fill="#FFB8B8" cx="37.139" cy="37.329" r="2.038"/><path d="m34.487 42.987 1.775 5.034-.01.017c-.247.408-.328.738-.234.953.05.11.147.193.263.226l4.202-2.936-.147-1.177.008-.014c.406-.65.538-1.238.391-1.749a1.688 1.688 0 0 0-.801-.966l-.015-.012-2.096-2.55-2.801.497-.535 2.677Z" fill="#EDAA1E"/><path d="m31.787 51.822-1.19-1.464 2.868-4.733 1.336-4.132.042.013-.042-.013a1.66 1.66 0 1 1 2.96 1.432l-2.454 3.677-3.52 5.22Z" fill="#EDAA1E"/><path d="M40.033 36.917h-3.09l-.032-.444-.159.444h-.476l-.063-.88-.314.88h-.92v-.044a2.312 2.312 0 0 1 2.309-2.31h.436a2.312 2.312 0 0 1 2.31 2.31v.044Z" fill="#2F2E41"/><path d="M36.917 39.677a.398.398 0 0 1-.07-.007l-2.263-.399v-3.74h2.492l-.062.071c-.858 1.001-.212 2.624.25 3.503a.39.39 0 0 1-.347.572Z" fill="#2F2E41"/><path fill="#F0F0F0" d="M70.733 32.975v5.27H47.387l-3.371 4.044.385-4.044h-1.64v-5.27z"/><circle fill="#FFF" cx="52.467" cy="35.601" r="1"/><circle fill="#FFF" cx="49.243" cy="35.601" r="1"/><circle fill="#FFF" cx="46.02" cy="35.601" r="1"/></g></svg>