<svg xmlns="http://www.w3.org/2000/svg" viewBox="0 0 82 80"><g fill-rule="nonzero" fill="none"><circle fill="#FFF" cx="11.878" cy="39.157" r="11.878"/><circle fill="#2F2E41" cx="11.984" cy="34.915" r="4.736"/><path d="M23.82 11.899c-.012 6.56-5.34 11.868-11.899 11.856C5.361 23.744.053 18.417.064 11.857.076 5.297 5.404-.012 11.964 0A11.847 11.847 0 0 1 23.82 11.899Z" fill="#FFF"/><circle fill="#FFF" cx="40.063" cy="39.157" r="11.878"/><circle fill="#FFF" cx="40.029" cy="11.878" r="11.878"/><circle fill="#FFF" cx="68.978" cy="11.878" r="11.878"/><circle fill="#FFF" cx="69.407" cy="39.157" r="11.878"/><path d="M23.82 68.122C23.82 74.682 18.502 80 11.942 80 5.382 80 .064 74.682.064 68.122c0-6.56 5.318-11.878 11.878-11.878A11.826 11.826 0 0 1 23.82 68.122Z" fill="#FFF"/><circle fill="#FFF" cx="40.792" cy="68.122" r="11.878"/><path d="M6.437 8.014c.491-1.565 1.608-3 3.152-3.53 1.545-.53 3.807.277 4.968 1.434 2.124 2.117 2.643 9.39 1.183 11.688-.29-.015-1.291-.027-1.585-.038l-.416-1.385v1.372c-.468-.015-.94-.025-1.415-.03a6.159 6.159 0 0 1-6.08-6.007c-.039-1.525 0-2.887.193-3.504Z" fill="#2F2E41"/><circle fill="#9E616A" cx="11.766" cy="9.816" r="3.385"/><path d="m8.845 6.844 3.897-1.952a4.899 4.899 0 0 1 2.87 4.059l.097 1.163-1.633-.415-.178-1.488-.278 1.372-.753-.192.007-2.31-.753 2.309-2.69-.619-.586-1.927Z" fill="#2F2E41"/><circle fill="#2F2E41" cx="36.802" cy="33.023" r="1.677"/><circle fill="#2F2E41" cx="39.485" cy="36.824" r="4.248"/><circle fill="#9E616A" cx="39.836" cy="37.619" r="3.452"/><path d="M42.18 34.1a3.954 3.954 0 0 0-6.011 3.45c1.759.443 3.607.78 5.483.107l.443-1.085.26 1.085c.572.234 1.145.431 1.718-.002A4.038 4.038 0 0 0 42.18 34.1Z" fill="#2F2E41"/><path d="M35.24 28.47c-1.16-.531-2.614-.282-3.58.552-.965.834-1.424 2.19-1.238 3.453.19 1.287.973 2.396 1.694 3.479.722 1.083 1.426 2.27 1.426 3.571a3.54 3.54 0 0 1-3.533 3.538c1.1.474 2.248.957 3.444.9 1.197-.056 2.45-.825 2.646-2.007.14-.851-.277-1.681-.626-2.47a17.48 17.48 0 0 1-1.221-4.022c-.117-.661-.193-1.356.023-1.992a2.338 2.338 0 0 1 2.323-1.534l.395-.356c.176-1.263-.593-2.58-1.753-3.112ZM64.13 7.232a11.16 11.16 0 0 1-.796 2.541c-2.095 4.433 3.871 2.988 6.004 2.988 2.331 0 4.562 1.226 4.221-4.222-.145-2.326-1.89-4.221-4.221-4.221-1.992 0-4.792.885-5.208 2.914Z" fill="#2F2E41"/><circle fill="#FFB6B6" cx="68.988" cy="9.329" r="3.43"/><path d="M66.659 5.833a3.93 3.93 0 0 1 5.974 3.429c-1.748.439-3.584.775-5.448.105l-.44-1.077-.26 1.078c-.568.232-1.137.428-1.706-.003a4.012 4.012 0 0 1 1.88-3.532Z" fill="#2F2E41"/><circle fill="#FFB8B8" cx="11.986" cy="36.043" r="4.231"/><circle fill="#9E616A" cx="40.531" cy="65.751" r="3.603"/><circle fill="#FFB8B8" cx="40.513" cy="9.216" r="3.873"/><path d="M43.923 6.658s1.008-1.928-1.21-2.103c0 0-1.892-1.716-3.82-.314 0 0-1.05 0-1.626 1.19 0 0-.827-.314-1.009.526 0 0-.605 1.752 0 3.33.606 1.577.807 1.752.807 1.752s-.425-1.957 1.995-2.133c2.42-.175 4.641-1.691 4.843.237.202 1.927.424 1.057.424 1.057s1.915-2.754-.404-3.542Z" fill="#2F2E41"/><circle fill="#FFB6B6" cx="69.079" cy="36.836" r="3.791"/><path d="m16.8 65.28-.059.106c.523-1.29.047-2.878-.886-3.85s-2.23-1.416-3.508-1.593c-.948-.13-1.932-.127-2.834.22-1.305.504-2.303 1.668-3.136 2.88-.381.553-.756 1.185-.718 1.877.036.643.417 1.188.73 1.734.312.545.573 1.221.349 1.816-.134.355-.416.61-.646.9-.229.29-.417.683-.306 1.047.1.283.341.493.635.552.277.065.565.023.845-.02l7.281-1.1A3.103 3.103 0 0 0 16.8 65.28Z" fill="#2F2E41"/><circle fill="#FFB9B9" transform="rotate(-80.783 11.384 66.239)" cx="11.384" cy="66.239" r="3.56"/><path d="M20.86 75.964c-4.28 4.872-11.68 5.407-16.617 1.201l1.019-2.842a3.057 3.057 0 0 1 2.597-1.783l.648-.04 1.545-1.333s4.164-.149 4.103-.22l2.522 1.517-.002-.01.991.06a3.056 3.056 0 0 1 2.597 1.784l.598 1.666Z" fill="#0F4771"/><path d="M49.55 75.964c-4.282 4.872-11.68 5.407-16.618 1.201l1.02-2.842a3.057 3.057 0 0 1 2.596-1.783l.648-.04 1.545-1.333s4.164-.149 4.103-.22l2.522 1.517-.002-.01.991.06a3.056 3.056 0 0 1 2.597 1.784l.598 1.666Z" fill="#A10000"/><path d="M14.76 62.935c-.091-.487-.587-.709-1.012-.817a9.753 9.753 0 0 0-3.773-.207c-.918.131-1.858.42-2.524 1.136a3.394 3.394 0 0 0-.858 2.186c-.027.483.08.964.312 1.389.24.406.648.7 1.07.69l.042.148c1.788-.249 3.448-1.361 4.493-3.01a3.856 3.856 0 0 1-1.126 1.82 7.019 7.019 0 0 0 3.03-2.335c.211-.28.417-.63.347-1Z" fill="#2F2E41"/><path d="M20.756 46.961c-4.281 4.872-11.68 5.407-16.618 1.201l1.02-2.843a3.057 3.057 0 0 1 2.596-1.783l.648-.04 1.545-1.332s4.165-.149 4.103-.22l2.522 1.517-.002-.01.992.06a3.056 3.056 0 0 1 2.596 1.783l.598 1.667Z" fill="#EDAA1E"/><path d="M49 47.104c-4.281 4.871-11.68 5.406-16.617 1.2l1.018-2.842a3.057 3.057 0 0 1 2.597-1.783l.648-.04 1.546-1.333s4.164-.149 4.102-.22l2.522 1.517-.002-.01.992.06a3.056 3.056 0 0 1 2.596 1.784L49 47.104Z" fill="#54C0DB"/><path d="M78.318 47.104c-4.282 4.871-11.68 5.406-16.618 1.2l1.019-2.842a3.057 3.057 0 0 1 2.596-1.783l.649-.04 1.545-1.333s4.164-.149 4.102-.22l2.523 1.517-.002-.01.991.06a3.056 3.056 0 0 1 2.597 1.784l.598 1.667Z" fill="#46C443"/><path d="M20.756 19.738c-4.281 4.872-11.68 5.406-16.618 1.2l1.02-2.842a3.057 3.057 0 0 1 2.596-1.783l.648-.04 1.545-1.333s4.165-.148 4.103-.22l2.522 1.518-.002-.01.992.06a3.056 3.056 0 0 1 2.596 1.783l.598 1.667Z" fill="#1976BC"/><path d="M48.896 19.776c-4.282 4.871-11.68 5.406-16.618 1.2l1.019-2.842a3.057 3.057 0 0 1 2.596-1.783l.649-.04 1.545-1.333s4.164-.149 4.102-.22l2.523 1.517-.002-.01.991.06a3.056 3.056 0 0 1 2.597 1.784l.598 1.667Z" fill="#46C443"/><path d="M78.213 19.776c-4.282 4.871-11.68 5.406-16.618 1.2l1.02-2.842a3.057 3.057 0 0 1 2.596-1.783l.648-.04 1.545-1.333s4.164-.149 4.103-.22l2.522 1.517-.002-.01.991.06a3.056 3.056 0 0 1 2.597 1.784l.598 1.667Z" fill="#ED4528"/><path d="M73.078 34.485A4.888 4.888 0 0 0 71.03 31.7c-.796-.51-1.79-.77-2.691-.5-.902.27-1.649 1.154-1.59 2.11-.325-.11-.695.037-.934.289-.238.252-.366.59-.458.927a5.898 5.898 0 0 0 .055 3.266l-.017.153c.44-.073.773-.45.98-.853.208-.402.328-.848.553-1.24.224-.393.598-.743 1.044-.755l-.04.68 1.15-.592-.273.655 1.004-.42-.112.63c.332-.757 1.359-1.089 2.057-.666.406.245.672.683.812 1.142.14.46.167.945.194 1.425.517-1.08.628-2.31.313-3.466ZM37.256 67.417l-.02-.06-.042.037.062.023ZM44.847 64.469a2.59 2.59 0 0 0-.967-1.891c-.21-.166-.453-.306-.592-.535a3.661 3.661 0 0 1-.201-.502c-.277-.658-1.065-1.008-1.773-.908-.707.1-1.319.575-1.731 1.158a1.178 1.178 0 0 0-1.648 1.366c-.366-.295-.959-.059-1.187.352-.229.411-.192.914-.125 1.38.124.84.329 1.667.613 2.468.356-.314.335-.886.291-1.369-.045-.502-.018-1.115.42-1.363.425-.24.94.023 1.408.16a2.66 2.66 0 0 0 2.2-.347c.243-.165.46-.371.723-.504.263-.132.597-.178.842-.015.223.15.314.428.39.686l.54 1.833a2.59 2.59 0 0 0 .797-1.97ZM16.45 34.559c.03-.316.043-.633.04-.95a4.474 4.474 0 0 0-.337-1.832 2.815 2.815 0 0 0-1.473-1.423 2.687 2.687 0 0 0-2.014.001c-.584-.368-1.232-.66-1.914-.696-.682-.036-1.404.217-1.825.774-.093.147-.2.286-.318.414-.338.313-.852.268-1.301.204l.604.518-.732.191.854.518c-.826.496-1.202 1.58-1.102 2.563.093.93.543 1.782 1.08 2.539.215-.453.168-.994.165-1.503-.002-.166.008-.33.03-.495 1.816.436 3.713.715 5.637.024l.386-.945.163.016.224.93c.507.207 1.015.388 1.524.198.024.143.04.29.05.43a9.36 9.36 0 0 0 .116-.508c.068-.036.132-.077.193-.123a4.137 4.137 0 0 0-.05-.845Z" fill="#2F2E41"/></g></svg>