<svg xmlns="http://www.w3.org/2000/svg" viewBox="0 0 88 80"><g transform="translate(.838 .315)" fill-rule="nonzero" fill="none"><path fill="#FFF" d="M0 0h60.629v36.351H0zM68.058 0h19.104v11.454H68.058zM83.351 16.716H71.984a.535.535 0 0 1 0-1.07h11.367a.535.535 0 0 1 0 1.07ZM81.518 14.883h-7.701a.535.535 0 1 1 0-1.07h7.701a.535.535 0 1 1 0 1.07ZM68.058 20.829h19.104v11.454H68.058zM83.351 37.545H71.984a.535.535 0 0 1 0-1.071h11.367a.535.535 0 0 1 0 1.07ZM81.518 35.712h-7.701a.535.535 0 1 1 0-1.07h7.701a.535.535 0 0 1 0 1.07Z"/><circle fill="#9E616A" cx="31.368" cy="15.031" r="4.524"/><path fill="#46C443" d="M38.991 36.351H27.647l.636-14.345.079-.083 1.126-1.188h3.582l1.329 1.286.105.103 2.829 2.71z"/><path d="M30.787 36.35h-8.622c-.057-5.489-.102-9.63-.102-9.63l.44-.269.003-.001 4.835-2.936 1.015-1.65.006.06.298 3.475s1.623 5.242 2.127 10.952ZM42.519 36.35h-7.673c-.41-1.86-.623-3.63-.53-5.107.376-6.032-.492-9.378-.116-9.378l.2.156 2.366 1.87 3.116 1.142 2.163.793.377.138v.182c.001.913.01 5.152.097 10.205Z" fill="#1976BC"/><path d="M27.088 16.447s.384-.676.295-2.93c-.09-2.256 3.345-.98 6.214-1.196 2.87-.215 2.262 3.766 2.262 3.766s.207-.237.65-2.158c.444-1.921-.563-3.835-.563-3.835-.296-2.019-1.893-1.372-1.893-1.372.769.3.621.94.621.94-.651-1.142-2.248-.495-2.248-.495-2.13-1.337-4.29.424-4.29.424-2.573.584-1.064 2.63-1.064 2.63-2.588 1.309.016 4.226.016 4.226Z" fill="#2F2E41"/><path d="M19.667 36.35c.22-4.402.388-7.857.322-8.124-.186-.741 2.434-1.746 2.514-1.775l.001-.001h.002l.5.27.366 9.63h-3.705ZM44.323 36.35h-3.894l-1.114-11.007.459-.335.108.025c.357.089 1.509.39 2.163.793.145.082.272.19.377.32a.386.386 0 0 1 .089.273c-.034.312.815 4.72 1.812 9.932Z" fill="#1976BC"/><path d="M50.878 40.795H9.75a.597.597 0 0 0 0 1.194h41.127a.597.597 0 1 0 0-1.194Z" fill="#CACACA"/><path d="M39.734 40.795v1.194H9.75a.597.597 0 0 1 0-1.194h29.983Z" fill="#3F3D56"/><circle fill="#3F3D56" cx="39.734" cy="41.392" r="1.194"/><path d="M30.314 51.342a2.465 2.465 0 1 1 0-4.93 2.465 2.465 0 0 1 0 4.93Zm0-4.74a2.275 2.275 0 1 0 0 4.55 2.275 2.275 0 0 0 0-4.55Z" fill="#46C443"/><path d="M29.989 50.205a.095.095 0 0 1-.095-.095v-2.465a.095.095 0 1 1 .19 0v2.465a.095.095 0 0 1-.095.095ZM30.64 50.205a.095.095 0 0 1-.095-.095v-2.465a.095.095 0 1 1 .19 0v2.465a.095.095 0 0 1-.095.095Z" fill="#46C443"/><path d="M19.025 48.878a2.465 2.465 0 1 1 4.93 0 2.465 2.465 0 0 1-4.93 0Zm.19 0a2.275 2.275 0 1 0 4.55 0 2.275 2.275 0 0 0-4.55 0Z" fill="#3F3D56"/><path d="M22.555 49.707a.079.079 0 0 0 .04-.147l-1.183-.682 1.182-.683a.079.079 0 0 0-.079-.137l-1.3.751a.079.079 0 0 0 0 .137l1.3.75c.012.008.026.011.04.011ZM20.81 49.981a.079.079 0 0 0 .08-.079v-2.05a.079.079 0 0 0-.158 0v2.05c0 .044.035.08.079.08ZM39.139 51.342a2.465 2.465 0 1 1 0-4.93 2.465 2.465 0 0 1 0 4.93Zm0-4.74a2.275 2.275 0 1 0 0 4.55 2.275 2.275 0 0 0 0-4.55Z" fill="#3F3D56"/><path d="M38.074 49.707a.079.079 0 0 1-.04-.147l1.183-.682-1.182-.683a.079.079 0 0 1 .079-.137l1.3.751a.079.079 0 0 1 0 .137l-1.3.75a.079.079 0 0 1-.04.011ZM39.818 49.981a.079.079 0 0 1-.078-.079v-2.05a.079.079 0 1 1 .157 0v2.05a.079.079 0 0 1-.079.08Z" fill="#3F3D56"/><path d="M6.603 50.735a1.261 1.261 0 0 1 .172-1.926l-1.212-4.316 2.219.709.811 3.99a1.268 1.268 0 0 1-1.99 1.543Z" fill="#FFB6B6"/><path d="m6.01 29.235-.46-.478s-1.42.976-1.12 4.002c.222 2.235-.48 3.183-.401 9.679l1.981 5.95 2.292-1.202-1.658-7.341-.634-10.61Z" fill="#54C0DB"/><path fill="#FFB6B6" d="M7.729 77.52h1.644l.781-6.338H7.729z"/><path d="M7.31 76.984h3.236c1.14 0 2.063.923 2.063 2.062v.067H7.31v-2.13Z" fill="#2F2E41"/><path fill="#FFB6B6" d="m12.522 76.938 1.631.2 1.547-6.196-2.407-.295z"/><path d="m12.17 76.355 3.213.394a2.062 2.062 0 0 1 1.796 2.298l-.008.066-5.26-.645.26-2.113ZM6.878 45.022s-3.166 2.164-1.583 8.02l2.14 22.73 2.543-.018 1.077-11.216.732-7.896 2.446 8.165-2.012 10.019 2.97.312 3.556-11.65-1.715-16.59-10.154-1.876Z" fill="#2F2E41"/><path d="m14.516 28.142-1.61-1.294-4.268-.176-3.088 2.085s-.318 7.422 1.77 14.033l-1.094 2.762 10.95 1.374-2.66-18.784Z" fill="#54C0DB"/><circle fill="#FFB6B6" cx="11.064" cy="21.422" r="3.661"/><path d="M12.025 16.896h-.814a3.799 3.799 0 0 0-4.884 3.64L5.06 24.719a.807.807 0 0 0 .772 1.041h.619a1.82 1.82 0 0 0 .317-1.268c.115.28.196.573.24.873.014.131.012.264-.008.395h5.381a2.008 2.008 0 0 0-.486-1.447c.433.433.81.92 1.121 1.447h.101a.807.807 0 0 0 .807-.807v-4.099h2.058a3.957 3.957 0 0 0-3.957-3.957Z" fill="#EDAA1E"/><path d="M16.1 50.419a1.261 1.261 0 0 1 .171-1.927l-1.212-4.315 2.219.708.811 3.99a1.268 1.268 0 0 1-1.99 1.544Z" fill="#FFB6B6"/><path d="m13.128 28.961 1.388-.819s2.183-.384 2.416 2.524c.233 2.909.568 10.46.568 10.46l.681 6.364-2.527.539-2.904-8.704.378-10.364Z" fill="#54C0DB"/></g></svg>
