<svg xmlns="http://www.w3.org/2000/svg" viewBox="0 0 85 79"><g fill-rule="nonzero" fill="none"><path fill="#FFB7B7" d="M49.229 69.186h2.278l1.084-8.786h-3.362z"/><path d="M48.648 68.442h4.486a2.859 2.859 0 0 1 2.86 2.859v.093h-7.346v-2.952Z" fill="#2F2E41"/><path fill="#FFB7B7" d="M36.896 69.186h2.277l1.084-8.786h-3.362z"/><path d="M36.314 68.442H40.8a2.859 2.859 0 0 1 2.86 2.859v.093h-7.345v-2.952ZM35.967 29.364v23.199l.588 14.977H41.4l1.615-28.191 3.23 11.599 2.056 16.298 5.873-.294-3.964-37.588z" fill="#2F2E41"/><circle fill="#FFB8B8" cx="41.6" cy="4.991" r="3.524"/><path fill="#1976BC" d="m40.136 9.433-.938.99-.881 19.822 10.424-.293-2.496-17.326-2.202-2.111-1.118-1.082z"/><path d="m38.463 11.598.792-1.284.236 2.752s1.909 6.167 1.762 11.6c-.147 5.432.734 18.206-.44 18.353-1.175.147-6.167.44-6.167-.587 0-1.028-.294-28.338-.294-28.338l4.111-2.496ZM43.806 10.314l1.999 1.578 4.405 1.615s0 18.794.88 23.199c.882 4.404 2.497 4.845.441 4.992-2.055.147-1.909-.588-1.909-.588s1.469-7.34-.44-8.81c-1.909-1.468-5.58-9.984-5.286-14.682.294-4.699-.383-7.304-.09-7.304Z" fill="#46C443"/><path d="M38.266 6.093s.3-.526.23-2.282c-.07-1.757 2.605-.763 4.84-.93 2.235-.168 1.762 2.932 1.762 2.932s.161-.184.506-1.68c.346-1.497-.438-2.988-.438-2.988C44.935-.427 43.69.077 43.69.077c.6.233.484.732.484.732-.507-.89-1.751-.385-1.751-.385-1.66-1.042-3.341.33-3.341.33-2.005.454-.83 2.049-.83 2.049-2.015 1.018.013 3.29.013 3.29Z" fill="#2F2E41"/><path d="M34.65 40.309a1.486 1.486 0 0 0-.263-2.264l.635-3.337-1.934-.88-.83 4.725a1.495 1.495 0 0 0 2.393 1.756Z" fill="#FFB7B7"/><path d="m35.086 14.094-.39-.209s-2.106.796-1.959 1.384c.147.587-1.175 21.143-.734 21.877.44.734 3.964.147 3.964.147l-.88-23.199Z" fill="#46C443"/><path d="M51.848 38.925a1.486 1.486 0 0 1-.052-2.279l-1.09-3.217 1.793-1.14 1.476 4.565a1.495 1.495 0 0 1-2.127 2.07Z" fill="#FFB7B7"/><path d="M50.127 36.12s3.571.094 3.906-.694c.334-.788-3.818-20.963-3.754-21.565.064-.602-2.132-1.1-2.132-1.1l-.357.262 2.337 23.097Z" fill="#3F3D56"/><path d="M65.91 37.028 63.7 26.194l-.971-8.002-2.152 1.392.297 8.818 3.435 9.137a1.197 1.197 0 1 0 1.602-.511ZM45.232 37.866l.612-11.04-.203-8.059 2.845 1.064.474 8.768-2.069 9.539a1.197 1.197 0 1 1-1.66-.272ZM51.189 69.964h1.454l.691-5.607h-2.145z" fill="#FFB7B7"/><path d="M50.819 69.49h2.862c1.008 0 1.824.816 1.825 1.823v.06h-4.687v-1.884Z" fill="#2F2E41"/><path fill="#FFB7B7" d="m56.695 69.321 1.436.222 1.541-5.435-2.12-.328z"/><path d="m56.401 68.795 2.829.438a1.824 1.824 0 0 1 1.524 2.081l-.01.059-4.63-.717.287-1.861ZM50.762 68.29l-.007-.04-5.262-28.45a10.747 10.747 0 0 1 .95-6.721l3.184-6.37 9.504 1.287 1.121 8.11 3.997 15.47-.004.013-5.12 16.266-3.357.221 2.973-14.52-5.443-12.364.384 26.877-2.92.22Z" fill="#2F2E41"/><path d="m59.352 29.034-.063-.098c-.01-.018-1.165-1.757-4.307-.596-3.206 1.186-5.691-1.104-5.716-1.127l-.012-.012-.726-6.473-.858-5.254 2.73-.48 1.341-.804 5.335-.095 1.404 1.104 2.305.251.211 4.788v.005l-1.644 8.791Z" fill="#54C0DB"/><path d="M60.117 20.701v-4.1l.648-1.182.026-.001c.51.019.993.238 1.343.61.652.662.947 1.766.878 3.28l-.002.028-2.893 1.365ZM48.819 20.256l-3.304-.397-.003-.038c-.112-1.647.175-2.87.855-3.635a2.096 2.096 0 0 1 1.354-.737h.019l.894.812.185 3.995Z" fill="#54C0DB"/><path d="M58.382 12.443H49.69a.675.675 0 0 1-.675-.675V8.621a5.021 5.021 0 1 1 10.043 0v3.147a.675.675 0 0 1-.675.675Z" fill="#2F2E41"/><circle fill="#FFB7B7" cx="54.237" cy="8.73" r="3.681"/><path d="M57.737 8.845h-4.86a.375.375 0 0 1-.373-.328l-.062-.503a.225.225 0 0 0-.427-.067l-.319.682a.376.376 0 0 1-.34.216h-.738a.375.375 0 0 1-.373-.41l.291-3.04a.378.378 0 0 1 .214-.306c2.226-1.039 4.484-1.038 6.71.004a.375.375 0 0 1 .211.288l.437 3.036a.375.375 0 0 1-.371.428Z" fill="#2F2E41"/><path d="M59.736 37.372a1.345 1.345 0 0 0 .72-1.932l3.152-3.592-2.46-.339-2.615 3.463a1.352 1.352 0 0 0 1.203 2.4ZM63.537 69.207h-2.198l-1.046-8.477h3.244z" fill="#9F616A"/><path d="M64.097 71.337h-7.086v-.09a2.758 2.758 0 0 1 2.758-2.758h4.328v2.848Z" fill="#2F2E41"/><path fill="#9F616A" d="m75.041 67.368-2.099.652-3.512-7.786 3.097-.962z"/><path d="m76.208 69.236-6.768 2.101-.026-.085c-.452-1.455.361-3 1.816-3.452l4.133-1.284.845 2.72Z" fill="#2F2E41"/><path fill="#E6E6E6" d="m61.854 30.126-3.255 3.728 2.548.229z"/><path d="M60.582 34.93s-1.13.566-1.272 3.11c-.141 2.544.424 9.186.424 9.186s-.565 2.968 0 5.653c.565 2.685-.565 12.435.141 12.435.707 0 4.381.424 4.522 0 .142-.424.283-6.783.283-6.783s1.13-3.25 0-5.228c0 0 3.947 6.892 6.5 12.153.56 1.151 4.805-.142 4.099-1.413-.707-1.272-2.402-7.066-2.402-7.066s-1.272-4.24-3.533-6.077l1.13-9.044s2.403-6.077.99-6.925c-1.413-.848-10.882 0-10.882 0Z" fill="#EDAA1E"/><circle fill="#A0616A" cx="64.821" cy="8.222" r="3.674"/><path d="m68.92 12.179-4.568 2.685s-1.75.985-2.402 2.685c-.697 1.811-.292 4.362 0 4.946.565 1.13-.238 3.957-.238 3.957l-.706 6.5s-2.544 2.402-.565 2.685c1.978.283 5.511-.141 7.63 0 2.12.141 4.523.424 3.816-.99-.706-1.413-1.554-2.402-.706-5.228.663-2.211.635-10.48.59-13.973a2.811 2.811 0 0 0-1.365-2.376l-1.486-.891Z" fill="#E5E5E5"/><path fill="#000" opacity=".1" d="m66.871 16.63.424 8.621-4.109 8.32-.696-.266 4.239-7.772zM71.534 27.087v-.989l-4.804 7.914z"/><path d="m62.214 4.818-.607-.243s1.27-1.398 3.037-1.276l-.497-.548s1.215-.486 2.319.79c.58.672 1.252 1.46 1.671 2.35h.651l-.271.597.95.598-.976-.107c.093.516.061 1.047-.092 1.548l.027.473s-1.131-1.75-1.131-1.993v.608s-.608-.547-.608-.912l-.331.425-.166-.668-2.043.668.331-.547-1.27.182.497-.668s-1.436.79-1.491 1.459c-.055.669-.773 1.52-.773 1.52l-.331-.608s-.497-2.736 1.104-3.648Z" fill="#2F2E41"/><path d="M64.59 37.772a1.345 1.345 0 0 0 .367-2.029l2.463-4.094-2.48.102-1.96 3.873a1.352 1.352 0 0 0 1.61 2.148Z" fill="#9F616A"/><path d="m70.192 14.016 1.06-.212s3.179 2.332 2.19 6.995c-.99 4.664-5.37 11.73-5.37 11.73s-.99 1.271-1.272 1.554c-.282.282-.848 0-.565.424.282.424-.424.706-.424.706s-3.11 0-2.827-1.13c.283-1.13 5.088-9.186 5.088-9.186l-.707-7.49s-.565-3.674 2.827-3.391Z" fill="#E5E5E5"/><path d="M83.971 71.674H24.167c-.054 0-.098-.07-.098-.156 0-.087.044-.157.098-.157h59.804c.054 0 .098.07.098.157 0 .086-.044.156-.098.156Z" fill="#CACACA"/><path d="M23.976 19.52c.034 4.614-2.913 3.916-6.507 3.916s-6.194.688-6.508-3.915c-.498-7.314 1.423-12.792 6.508-12.792 5.26 0 6.453 5.478 6.507 12.792Z" fill="#2F2E41"/><path d="M4.293 9.735a1.793 1.793 0 0 1-1.108 2.516l-.328 6.363-2.666-1.963.72-5.74a1.803 1.803 0 0 1 3.382-1.176ZM28.337 45.693a1.793 1.793 0 0 0-.783-2.636l.473-6.353-2.892 1.613-.005 5.786a1.803 1.803 0 0 0 3.207 1.59ZM15.021 76.277l2.186-.001 1.04-8.43h-3.226z" fill="#A0616A"/><path d="M14.463 75.563h4.305a2.743 2.743 0 0 1 2.743 2.743v.09h-7.047v-2.833Z" fill="#2F2E41"/><path fill="#A0616A" d="m28.927 76.277 2.186-.001 1.04-8.43h-3.226z"/><path d="M28.37 75.563h4.304a2.743 2.743 0 0 1 2.744 2.743v.09H28.37v-2.833Z" fill="#2F2E41"/><path d="m27.68 42.192-.095-.017c-.796-.144-1.602-.29-2.31-.442l-.07-.016-.001-.071a5605.61 5605.61 0 0 0-.042-9.723 20.552 20.552 0 0 1-2.055-11.017l.004-.04.033-.023a2.113 2.113 0 0 1 2.13-.165 2.361 2.361 0 0 1 1.212 1.793c.644 3.511 1.311 7.147 2.055 10.73l.003.014-.001.013c-.276 2.922-.561 5.944-.854 8.868l-.01.096Z" fill="#1976BC"/><path d="m26.255 73.272-.017-.082c-1.023-4.837-2.01-8.776-2.965-12.585-1.144-4.564-2.228-8.89-3.322-14.488.15 7.06.5 12.13.9 17.96.182 2.632.37 5.354.56 8.532l.005.096-.097-.002c-3.42-.088-6.926-.299-10.315-.503l-.09-.006.006-.09c.642-9.458.843-15.604.99-20.092.31-9.469.357-10.924 3.884-18.937.134-.304.932-1.203 1.809-1.066l6.939 1.08.012.061c.196.987 1.168 3.98 2.512 8.122 2.875 8.855 7.22 22.237 8.578 30.214l.015.09-.09.014c-1.972.28-3.391.572-4.763.854-1.298.267-2.64.543-4.468.815l-.083.013Z" fill="#2F2E41"/><path d="M20.224 35.592c-1.852 0-3.683-.642-4.995-1.893a1.481 1.481 0 0 1-.731-1.152 1.502 1.502 0 0 1 .353-1.218c-1.287-1.558-2.615-3.167-3.887-4.806l-.035-.046.04-.077c.833-1.59 1.693-3.233 2.519-4.857a.849.849 0 0 1 .692-.525.987.987 0 0 1 .762.17l.002-.039c.034-.822.069-1.644.104-2.423l.004-.084.083-.002c1.589-.035 3.232-.07 4.845-.166l.061-.004.8 1.785c1.3-.126 2.608.14 3.756.762l.053.028-.006.06a36.345 36.345 0 0 0 .208 9.215c-.025 1.392-.052 2.816-.334 3.95l-.009.034-.028.019a7.614 7.614 0 0 1-4.257 1.27Z" fill="#1976BC"/><path d="m13.406 27.848-.106-.05c-1.245-.624-2.493-1.316-3.7-1.986l-.167-.033c-3.179-.638-4.93-.989-7.798-2.67l-.022-.014-.011-.022C.166 20.33-.235 17.932.124 14.226l.007-.075.074-.006c.311-.025.818-.042 1.308-.058.476-.016.97-.033 1.272-.056l.07-.006.021.067c.376 1.16.695 2.243 1.033 3.39.348 1.177.707 2.395 1.144 3.748 1.601.46 5.894.323 7.229.141a2.388 2.388 0 0 1 2.085.948l.025.031-.006.04c-.294 1.793-.632 3.597-.958 5.341l-.022.117Z" fill="#1976BC"/><circle fill="#A0616A" transform="rotate(-61.337 17.389 13.587)" cx="17.389" cy="13.587" r="4.379"/><path d="M12.388 13.326h1.731l.765-2.14.152 2.14h.828l.446-1.248.089 1.248h6.15a4.635 4.635 0 0 0-4.635-4.636h-.891a4.635 4.635 0 0 0-4.635 4.636Z" fill="#2F2E41"/></g></svg>