<svg xmlns="http://www.w3.org/2000/svg" xmlns:xlink="http://www.w3.org/1999/xlink" viewBox="0 0 220 78">
  <defs>
    <linearGradient x1=".131%" y1="50%" x2="100.019%" y2="50%" id="a">
      <stop stop-color="#4DB749" offset="15%"/>
      <stop stop-color="#1976BC" offset="70%"/>
    </linearGradient>
    <linearGradient x1="0%" y1="49.995%" x2="100%" y2="49.995%" id="c">
      <stop stop-color="#4DB749" offset="15%"/>
      <stop stop-color="#1976BC" offset="70%"/>
    </linearGradient>
    <path d="M27.545 41.039h9.124C33.987 48.121 31.214 55 27.53 60.56l.015-19.521Zm-13.78 0h10.232v24.11a26.995 26.995 0 0 1-8.085 6.2c-.693.34-1.409.648-2.154.935V41.039h.007Zm28.027-3.526c2.84-7.489 5.772-14.737 9.795-20.478V37.52h-9.795v-.008Zm23.545 0H55.105V12.65a26.588 26.588 0 0 1 7.535-5.515 25.277 25.277 0 0 1 2.75-1.153v31.561l-.053-.03ZM61.065 3.955a31.192 31.192 0 0 0-10.457 8.492c-5.681 6.976-9.17 16.063-12.598 25.074H2.554a1.778 1.778 0 0 0-.233 3.548h7.895v32.397a33.73 33.73 0 0 1-7.67.822 1.778 1.778 0 0 0-.233 3.548h.234a33.301 33.301 0 0 0 14.94-3.202 31.079 31.079 0 0 0 10.39-8.529c5.68-6.984 9.176-16.025 12.574-25.066h35.984a1.77 1.77 0 1 0 0-3.541H68.9V4.942a34.658 34.658 0 0 1 7.112-.7 1.77 1.77 0 0 0 0-3.541h-.03a33.339 33.339 0 0 0-14.91 3.202l-.008.052Z" id="b"/>
  </defs>
  <g fill="none" fill-rule="evenodd">
    <path d="M27.643 41.1h9.124c-2.682 7.082-5.455 13.96-9.139 19.52l.015-19.52Zm-13.78 0h10.232v24.109a26.995 26.995 0 0 1-8.085 6.2c-.693.34-1.409.649-2.155.935V41.099h.008Zm28.027-3.527c2.84-7.489 5.772-14.737 9.795-20.478v20.486H41.89v-.008Zm23.545 0H55.203V12.71a26.588 26.588 0 0 1 7.535-5.515 25.277 25.277 0 0 1 2.75-1.153v31.561l-.053-.03ZM61.163 4.016a31.192 31.192 0 0 0-10.458 8.49c-5.68 6.978-9.169 16.064-12.597 25.075H2.652a1.778 1.778 0 0 0-.234 3.548h7.896v32.398a33.73 33.73 0 0 1-7.67.82 1.778 1.778 0 0 0-.233 3.55h.234a33.301 33.301 0 0 0 14.94-3.202 31.079 31.079 0 0 0 10.39-8.53c5.68-6.983 9.176-16.025 12.574-25.066h35.984a1.77 1.77 0 0 0 0-3.54h-7.534V5.002a34.658 34.658 0 0 1 7.112-.7 1.77 1.77 0 0 0 0-3.542h-.03a33.339 33.339 0 0 0-14.91 3.202l-.008.053Z" fill="url(#a)" fill-rule="nonzero"/>
    <mask id="d" fill="#fff">
      <use xlink:href="#b"/>
    </mask>
    <path fill="url(#c)" fill-rule="nonzero" mask="url(#d)" d="M.851.814h77.467v77.037H.851z"/>
    <path fill="#1976BC" d="M207.849 31.59v15.898h11.871v-2.496h-9.086v-4.27h7.953v-2.499h-7.953v-4.136h8.973V31.59h-11.758m-20.373 4.406c0 2.952 1.903 3.954 5.28 4.772 2.945.679 3.579 1.293 3.579 2.453 0 1.227-1.087 2.02-2.809 2.02-1.972 0-3.489-.75-5.006-2.068l-1.675 2.002c1.9 1.7 4.19 2.542 6.612 2.542 3.332 0 5.665-1.772 5.665-4.773 0-2.655-1.744-3.858-5.098-4.675-3.036-.727-3.76-1.273-3.76-2.52 0-1.071.95-1.909 2.581-1.909 1.451 0 2.879.567 4.304 1.636l1.497-2.116c-1.609-1.294-3.443-1.996-5.755-1.996-3.147 0-5.415 1.86-5.415 4.632m-9.244 11.492h-2.787V31.59h2.787v15.898M154.033 31.59v2.589h5.029v13.309h2.809V34.179h5.028V31.59h-12.866m-17.769 0v15.898h11.124v-2.542h-8.337V31.59h-2.787m-17.722-.113-6.978 16.011h2.857l1.63-3.836h7.5l1.61 3.836h2.943l-6.979-16.01h-2.583m1.248 3.339 2.74 6.36h-5.458l2.718-6.36m-27.238 1.179c0 2.952 1.903 3.954 5.28 4.772 2.946.679 3.58 1.293 3.58 2.453 0 1.227-1.086 2.02-2.81 2.02-1.97 0-3.487-.75-5.006-2.068l-1.677 2.002c1.903 1.7 4.192 2.542 6.618 2.542 3.327 0 5.66-1.772 5.66-4.773 0-2.655-1.743-3.858-5.097-4.675-3.035-.727-3.759-1.273-3.759-2.52 0-1.071.95-1.909 2.582-1.909 1.451 0 2.878.567 4.305 1.636l1.495-2.116c-1.607-1.294-3.443-1.996-5.755-1.996-3.15 0-5.416 1.86-5.416 4.632"/>
  </g>
</svg>
