<svg xmlns="http://www.w3.org/2000/svg" xmlns:xlink="http://www.w3.org/1999/xlink" viewBox="0 0 78 78">
  <defs>
    <linearGradient x1=".131%" y1="50%" x2="100.019%" y2="50%" id="a">
      <stop stop-color="#4DB749" offset="15%"/>
      <stop stop-color="#1976BC" offset="70%"/>
    </linearGradient>
    <linearGradient x1="0%" y1="49.995%" x2="100%" y2="49.995%" id="c">
      <stop stop-color="#4DB749" offset="15%"/>
      <stop stop-color="#1976BC" offset="70%"/>
    </linearGradient>
    <path d="M27.545 41.039h9.124C33.987 48.121 31.214 55 27.53 60.56l.015-19.521Zm-13.78 0h10.232v24.11a26.995 26.995 0 0 1-8.085 6.2c-.693.34-1.409.648-2.154.935V41.039h.007Zm28.027-3.526c2.84-7.489 5.772-14.737 9.795-20.478V37.52h-9.795v-.008Zm23.545 0H55.105V12.65a26.588 26.588 0 0 1 7.535-5.515 25.277 25.277 0 0 1 2.75-1.153v31.561l-.053-.03ZM61.065 3.955a31.192 31.192 0 0 0-10.457 8.492c-5.681 6.976-9.17 16.063-12.598 25.074H2.554a1.778 1.778 0 0 0-.233 3.548h7.895v32.397a33.73 33.73 0 0 1-7.67.822 1.778 1.778 0 0 0-.233 3.548h.234a33.301 33.301 0 0 0 14.94-3.202 31.079 31.079 0 0 0 10.39-8.529c5.68-6.984 9.176-16.025 12.574-25.066h35.984a1.77 1.77 0 1 0 0-3.541H68.9V4.942a34.658 34.658 0 0 1 7.112-.7 1.77 1.77 0 0 0 0-3.541h-.03a33.339 33.339 0 0 0-14.91 3.202l-.008.052Z" id="b"/>
  </defs>
  <g fill="none" fill-rule="evenodd">
    <path d="M27.643 41.1h9.124c-2.682 7.082-5.455 13.96-9.139 19.52l.015-19.52Zm-13.78 0h10.232v24.109a26.995 26.995 0 0 1-8.085 6.2c-.693.34-1.409.649-2.155.935V41.099h.008Zm28.027-3.527c2.84-7.489 5.772-14.737 9.795-20.478v20.486H41.89v-.008Zm23.545 0H55.203V12.71a26.588 26.588 0 0 1 7.535-5.515 25.277 25.277 0 0 1 2.75-1.153v31.561l-.053-.03ZM61.163 4.016a31.192 31.192 0 0 0-10.458 8.49c-5.68 6.978-9.169 16.064-12.597 25.075H2.652a1.778 1.778 0 0 0-.234 3.548h7.896v32.398a33.73 33.73 0 0 1-7.67.82 1.778 1.778 0 0 0-.233 3.55h.234a33.301 33.301 0 0 0 14.94-3.202 31.079 31.079 0 0 0 10.39-8.53c5.68-6.983 9.176-16.025 12.574-25.066h35.984a1.77 1.77 0 0 0 0-3.54h-7.534V5.002a34.658 34.658 0 0 1 7.112-.7 1.77 1.77 0 0 0 0-3.542h-.03a33.339 33.339 0 0 0-14.91 3.202l-.008.053Z" fill="url(#a)" fill-rule="nonzero"/>
    <mask id="d" fill="#fff">
      <use xlink:href="#b"/>
    </mask>
    <path fill="url(#c)" fill-rule="nonzero" mask="url(#d)" d="M.851.814h77.467v77.037H.851z"/>
  </g>
</svg>
